<?xml version="1.0" standalone="no"?>
<!DOCTYPE svg PUBLIC "-//W3C//DTD SVG 20010904//EN"
 "http://www.w3.org/TR/2001/REC-SVG-20010904/DTD/svg10.dtd">
<svg version="1.0" xmlns="http://www.w3.org/2000/svg"
 width="500.000000pt" height="500.000000pt" viewBox="0 0 500.000000 500.000000"
 preserveAspectRatio="xMidYMid meet">

<g transform="translate(0.000000,500.000000) scale(0.100000,-0.100000)"
fill="#164E70" stroke="none">
<path d="M2385 4611 c-61 -59 -272 -263 -470 -452 -1565 -1492 -1904 -1821
-1910 -1848 -9 -40 18 -88 60 -108 51 -24 87 -5 212 117 60 58 194 186 298
285 104 99 255 243 335 321 80 77 188 180 240 229 52 49 156 148 230 220 74
73 171 165 215 206 44 41 146 137 225 215 80 77 183 176 230 220 47 44 148
140 225 215 77 75 159 153 182 173 l43 38 37 -32 c21 -18 103 -96 183 -174 80
-78 181 -174 225 -215 44 -41 148 -140 230 -220 83 -81 188 -182 235 -226 47
-43 146 -138 220 -210 74 -72 176 -169 225 -215 50 -46 158 -149 241 -229 82
-80 202 -195 265 -256 535 -512 510 -492 574 -462 42 20 69 68 60 107 -5 22
-200 214 -783 772 -1464 1401 -1667 1595 -1686 1617 -11 11 -22 21 -25 21 -3
0 -56 -49 -116 -109z"/>
<path d="M3294 4360 c-60 -24 -73 -112 -25 -161 l29 -29 336 0 336 0 0 -334
c0 -319 1 -334 20 -359 11 -14 33 -28 50 -32 38 -8 94 18 109 51 8 17 11 153
11 449 l0 425 -422 -1 c-233 0 -433 -4 -444 -9z"/>
<path d="M663 2256 l-28 -24 -3 -1116 -2 -1116 725 0 725 0 0 680 0 680 420 0
420 0 0 -680 0 -680 725 0 725 0 0 1044 c0 737 -3 1052 -11 1075 -12 33 -52
61 -89 61 -29 0 -77 -27 -90 -49 -7 -13 -10 -339 -10 -975 l0 -956 -525 0
-525 0 0 680 0 680 -620 0 -620 0 0 -680 0 -680 -525 0 -525 0 0 1011 0 1011
-29 29 c-39 38 -97 40 -138 5z"/>
</g>
</svg>
