<?xml version="1.0" standalone="no"?>
<!DOCTYPE svg PUBLIC "-//W3C//DTD SVG 20010904//EN"
 "http://www.w3.org/TR/2001/REC-SVG-20010904/DTD/svg10.dtd">
<svg version="1.0" xmlns="http://www.w3.org/2000/svg"
 width="64.000000pt" height="64.000000pt" viewBox="0 0 64.000000 64.000000"
 preserveAspectRatio="xMidYMid meet">

<g transform="translate(0.000000,64.000000) scale(0.100000,-0.100000)"
fill="#164E70" stroke="none">
<path d="M207 622 c-10 -10 -17 -26 -17 -34 0 -12 -14 -18 -47 -23 -27 -3 -55
-12 -64 -18 -42 -32 -55 -121 -19 -132 11 -3 20 -11 20 -17 0 -77 34 -358 46
-376 14 -21 19 -22 194 -22 175 0 180 1 194 23 12 17 46 298 46 375 0 6 9 14
20 17 36 11 23 100 -19 132 -9 6 -37 15 -63 18 -37 5 -48 11 -48 24 0 39 -31
51 -132 51 -79 0 -98 -3 -111 -18z m203 -37 c0 -12 -17 -15 -90 -15 -73 0 -90
3 -90 15 0 12 17 15 90 15 73 0 90 -3 90 -15z m128 -71 c12 -8 22 -26 22 -40
l0 -24 -240 0 -240 0 0 24 c0 50 27 56 240 56 161 0 199 -3 218 -16z m-18
-136 c0 -18 -7 -98 -15 -178 -8 -80 -15 -148 -15 -152 0 -5 -76 -8 -170 -8
-93 0 -170 3 -170 8 0 4 -7 72 -15 152 -8 80 -15 160 -15 178 l0 32 200 0 200
0 0 -32z"/>
<path d="M197 373 c-3 -4 -2 -71 1 -148 6 -122 9 -140 25 -143 15 -3 17 5 16
70 -3 125 -13 221 -26 225 -6 2 -13 0 -16 -4z"/>
<path d="M305 368 c-3 -8 -4 -75 -3 -149 3 -111 6 -134 18 -134 13 0 15 23 15
144 0 107 -3 145 -12 148 -7 3 -15 -2 -18 -9z"/>
<path d="M416 372 c-2 -4 -8 -72 -12 -151 -7 -137 -6 -143 12 -139 17 3 20 17
26 143 3 77 4 143 1 148 -6 9 -21 9 -27 -1z"/>
</g>
</svg>
