<?xml version="1.0" standalone="no"?>
<!DOCTYPE svg PUBLIC "-//W3C//DTD SVG 20010904//EN"
 "http://www.w3.org/TR/2001/REC-SVG-20010904/DTD/svg10.dtd">
<svg version="1.0" xmlns="http://www.w3.org/2000/svg"
 width="512.000000pt" height="512.000000pt" viewBox="0 0 512.000000 512.000000"
 preserveAspectRatio="xMidYMid meet">

<g transform="translate(0.000000,512.000000) scale(0.100000,-0.100000)"
fill="#164E70" stroke="none">
<path d="M3713 4177 l-723 -722 0 -298 c0 -310 2 -325 44 -359 19 -16 52 -18
331 -18 l309 0 709 707 c406 405 715 722 723 740 27 63 20 73 -290 382 l-292
291 -44 0 -45 0 -722 -723z m962 283 l190 -190 -113 -112 -112 -113 -192 192
-193 193 110 110 c60 60 112 110 115 110 3 0 91 -86 195 -190z m-637 -1017
l-453 -453 -192 0 -193 0 0 192 0 193 452 452 453 453 192 -192 193 -193 -452
-452z"/>
<path d="M262 4469 c-133 -26 -230 -127 -252 -265 -14 -86 -13 -3003 1 -3079
14 -76 40 -126 90 -175 69 -67 174 -104 244 -86 43 11 75 53 75 98 0 54 -39
93 -101 102 -49 7 -85 33 -100 73 -5 15 -9 617 -9 1534 0 1659 -4 1551 60
1584 26 13 215 15 1592 15 1468 0 1565 1 1598 18 38 18 60 65 52 108 -6 33
-46 70 -83 78 -48 9 -3118 5 -3167 -5z"/>
<path d="M640 3735 l0 -105 105 0 105 0 0 105 0 105 -105 0 -105 0 0 -105z"/>
<path d="M1070 3735 l0 -105 105 0 105 0 0 105 0 105 -105 0 -105 0 0 -105z"/>
<path d="M1500 3735 l0 -105 100 0 100 0 0 105 0 105 -100 0 -100 0 0 -105z"/>
<path d="M640 3305 l0 -105 1065 0 1065 0 0 105 0 105 -1065 0 -1065 0 0 -105z"/>
<path d="M4454 3193 c-12 -2 -32 -15 -45 -29 l-24 -26 -5 -998 c-5 -994 -5
-999 -26 -1027 -11 -15 -36 -33 -55 -40 -26 -9 -390 -12 -1494 -12 l-1459 -1
-241 -240 c-132 -132 -244 -240 -248 -240 -4 0 -7 87 -7 194 0 112 -5 206 -11
224 -23 66 -105 83 -161 33 l-33 -29 -3 -334 c-2 -220 0 -345 8 -370 23 -78
97 -100 166 -49 21 16 169 160 329 320 l290 291 1442 0 1442 0 57 21 c70 26
137 86 172 154 l27 50 3 1022 2 1022 -27 30 c-29 30 -61 41 -99 34z"/>
<path d="M640 2885 l0 -105 1065 0 1065 0 0 105 0 105 -1065 0 -1065 0 0 -105z"/>
<path d="M640 2455 l0 -105 1650 0 1650 0 0 105 0 105 -1650 0 -1650 0 0 -105z"/>
<path d="M640 2025 l0 -105 1650 0 1650 0 0 105 0 105 -1650 0 -1650 0 0 -105z"/>
<path d="M640 1605 l0 -105 1065 0 1065 0 0 105 0 105 -1065 0 -1065 0 0 -105z"/>
</g>
</svg>
